ffmpeg started on 2025-06-27 at 12:02:44
Report written to "D:\Convert\FFMetrics\reports\ssim_report-6.txt"
Log level: 32
Command line:
ffmpeg -hide_banner -nostdin -i "G:\\\xc0\xed\xe8\xec\xe5\\[\xd2\xee\xef]\\\xcf\xee\xe2\xe5\xeb\xe8\xf2\xe5\xeb\xfc\\\xd2\xc2-2\\Special\\[Ohys-Raws] Overlord II - SP05 (BDRip-720p)_HEVC.mkv" -i "G:\\\xc0\xed\xe8\xec\xe5\\[\xd2\xee\xef]\\\xcf\xee\xe2\xe5\xeb\xe8\xf2\xe5\xeb\xfc\\\xd2\xc2-2\\Special\\[Ohys-Raws] Overlord II - SP05 (BDRip-720p).mkv" -lavfi "[0:v]settb=AVTB,setpts=PTS-STARTPTS,format=pix_fmts=yuv420p10,fps=24000/1001,scale=1280:720:flags=bicubic[main];[1:v]settb=AVTB,setpts=PTS-STARTPTS,format=pix_fmts=yuv420p,fps=24000/1001,scale=1280:720:flags=bicubic[ref];[main][ref]ssim=eof_action=endall:stats_file='D\\:/Convert/FFMetrics/logs/ssim_logfile-6.txt'" -f null -
Input #0, matroska,webm, from 'G:\Аниме\[Топ]\Повелитель\ТВ-2\Special\[Ohys-Raws] Overlord II - SP05 (BDRip-720p)_HEVC.mkv':
  Metadata:
    ENCODER         : Lavf61.7.100
  Duration: 00:01:32.10, start: -0.021000, bitrate: 534 kb/s
  Stream #0:0(jpn): Video: hevc (Main 10), yuv420p10le(tv, bt709, progressive), 1280x720 [SAR 1:1 DAR 16:9], 23.98 fps, 23.98 tbr, 1k tbn (default)
      Metadata:
        ENCODER         : Lavc61.19.100 libx265
        BPS             : 335489
        DURATION        : 00:01:32.091708333
        NUMBER_OF_FRAMES: 2208
        NUMBER_OF_BYTES : 3861951
        _STATISTICS_WRITING_APP: mkvpropedit v66.0.0 ('Josie') 64-bit
        _STATISTICS_WRITING_DATE_UTC: 2025-06-27 08:23:38
        _STATISTICS_TAGS: BPS DURATION NUMBER_OF_FRAMES NUMBER_OF_BYTES
  Stream #0:1(jpn): Audio: aac (LC), 48000 Hz, stereo, fltp (default)
      Metadata:
        ENCODER         : Lavc61.19.100 aac
        BPS             : 194957
        DURATION        : 00:01:32.075000000
        NUMBER_OF_FRAMES: 4317
        NUMBER_OF_BYTES : 2243840
        _STATISTICS_WRITING_APP: mkvpropedit v66.0.0 ('Josie') 64-bit
        _STATISTICS_WRITING_DATE_UTC: 2025-06-27 08:23:38
        _STATISTICS_TAGS: BPS DURATION NUMBER_OF_FRAMES NUMBER_OF_BYTES
Input #1, matroska,webm, from 'G:\Аниме\[Топ]\Повелитель\ТВ-2\Special\[Ohys-Raws] Overlord II - SP05 (BDRip-720p).mkv':
  Metadata:
    encoder         : libebml v1.2.3 + libmatroska v1.3.0
    creation_time   : 2018-08-21T12:06:07.000000Z
  Duration: 00:01:32.09, start: 0.000000, bitrate: 1264 kb/s
  Stream #1:0(jpn): Video: h264 (Main), yuv420p(progressive), 1280x720 [SAR 1:1 DAR 16:9], 23.98 fps, 23.98 tbr, 1k tbn (default)
  Stream #1:1(jpn): Audio: aac (LC), 48000 Hz, stereo, fltp (default)
Stream mapping:
  Stream #0:0 (hevc) -> settb:default
  Stream #1:0 (h264) -> settb:default
  ssim:default -> Stream #0:0 (wrapped_avframe)
  Stream #0:1 -> #0:1 (aac (native) -> pcm_s16le (native))
[swscaler @ 00000228be348740] No accelerated colorspace conversion found from yuv420p to bgr48le.
[swscaler @ 00000228be420780] No accelerated colorspace conversion found from yuv420p to bgr48le.
[swscaler @ 00000228be493e00] No accelerated colorspace conversion found from yuv420p to bgr48le.
[swscaler @ 00000228be514180] No accelerated colorspace conversion found from yuv420p to bgr48le.
[swscaler @ 00000228be5647c0] No accelerated colorspace conversion found from yuv420p to bgr48le.
[swscaler @ 00000228be65f900] No accelerated colorspace conversion found from yuv420p to bgr48le.
[swscaler @ 00000228be7afbc0] No accelerated colorspace conversion found from yuv420p to bgr48le.
[swscaler @ 00000228be8cc340] No accelerated colorspace conversion found from yuv420p to bgr48le.
[swscaler @ 00000228bea48ac0] No accelerated colorspace conversion found from yuv420p to bgr48le.
[swscaler @ 00000228beb09b80] No accelerated colorspace conversion found from yuv420p to bgr48le.
[swscaler @ 00000228bec1c7c0] No accelerated colorspace conversion found from yuv420p to bgr48le.
[swscaler @ 00000228bed5f040] No accelerated colorspace conversion found from yuv420p to bgr48le.
[swscaler @ 00000228bee727c0] No accelerated colorspace conversion found from yuv420p to bgr48le.
[swscaler @ 00000228bef3c040] No accelerated colorspace conversion found from yuv420p to bgr48le.
[swscaler @ 00000228bef98040] No accelerated colorspace conversion found from yuv420p to bgr48le.
[swscaler @ 00000228bf013040] No accelerated colorspace conversion found from yuv420p to bgr48le.
Output #0, null, to 'pipe:':
  Metadata:
    encoder         : Lavf61.7.100
  Stream #0:0: Video: wrapped_avframe, yuv420p10le(tv, bt709, progressive), 1280x720 [SAR 1:1 DAR 16:9], q=2-31, 200 kb/s, 23.98 fps, 23.98 tbn
      Metadata:
        encoder         : Lavc61.19.100 wrapped_avframe
  Stream #0:1(jpn): Audio: pcm_s16le, 48000 Hz, stereo, s16, 1536 kb/s (default)
      Metadata:
        _STATISTICS_TAGS: BPS DURATION NUMBER_OF_FRAMES NUMBER_OF_BYTES
        BPS             : 194957
        DURATION        : 00:01:32.075000000
        NUMBER_OF_FRAMES: 4317
        NUMBER_OF_BYTES : 2243840
        _STATISTICS_WRITING_APP: mkvpropedit v66.0.0 ('Josie') 64-bit
        _STATISTICS_WRITING_DATE_UTC: 2025-06-27 08:23:38
        encoder         : Lavc61.19.100 pcm_s16le
frame=   78 fps=0.0 q=-0.0 size=N/A time=00:00:03.25 bitrate=N/A speed=6.38x    frame=  159 fps=156 q=-0.0 size=N/A time=00:00:06.63 bitrate=N/A speed=6.51x    frame=  259 fps=168 q=-0.0 size=N/A time=00:00:10.80 bitrate=N/A speed=6.99x    frame=  346 fps=168 q=-0.0 size=N/A time=00:00:14.43 bitrate=N/A speed=7.03x    frame=  442 fps=171 q=-0.0 size=N/A time=00:00:18.43 bitrate=N/A speed=7.15x    frame=  533 fps=172 q=-0.0 size=N/A time=00:00:22.23 bitrate=N/A speed=7.18x    frame=  625 fps=173 q=-0.0 size=N/A time=00:00:26.06 bitrate=N/A speed= 7.2x    frame=  712 fps=172 q=-0.0 size=N/A time=00:00:29.69 bitrate=N/A speed=7.19x    frame=  796 fps=171 q=-0.0 size=N/A time=00:00:33.19 bitrate=N/A speed=7.13x    frame=  890 fps=173 q=-0.0 size=N/A time=00:00:37.12 bitrate=N/A speed=7.19x    frame=  980 fps=172 q=-0.0 size=N/A time=00:00:40.87 bitrate=N/A speed=7.19x    frame= 1070 fps=173 q=-0.0 size=N/A time=00:00:44.62 bitrate=N/A speed= 7.2x    frame= 1163 fps=173 q=-0.0 size=N/A time=00:00:48.50 bitrate=N/A speed=7.22x    frame= 1249 fps=173 q=-0.0 size=N/A time=00:00:52.09 bitrate=N/A speed=7.21x    frame= 1340 fps=173 q=-0.0 size=N/A time=00:00:55.88 bitrate=N/A speed=7.21x    frame= 1427 fps=173 q=-0.0 size=N/A time=00:00:59.51 bitrate=N/A speed=7.21x    frame= 1516 fps=173 q=-0.0 size=N/A time=00:01:03.22 bitrate=N/A speed= 7.2x    frame= 1602 fps=173 q=-0.0 size=N/A time=00:01:06.81 bitrate=N/A speed= 7.2x    frame= 1688 fps=172 q=-0.0 size=N/A time=00:01:10.40 bitrate=N/A speed=7.18x    frame= 1776 fps=172 q=-0.0 size=N/A time=00:01:14.07 bitrate=N/A speed=7.18x    frame= 1865 fps=172 q=-0.0 size=N/A time=00:01:17.78 bitrate=N/A speed=7.17x    frame= 1953 fps=172 q=-0.0 size=N/A time=00:01:21.45 bitrate=N/A speed=7.18x    frame= 2027 fps=171 q=-0.0 size=N/A time=00:01:24.54 bitrate=N/A speed=7.13x    frame= 2120 fps=171 q=-0.0 size=N/A time=00:01:28.42 bitrate=N/A speed=7.14x    [Parsed_ssim_10 @ 00000228bdb60bc0] SSIM Y:0.991313 (20.611197) U:0.989857 (19.938408) V:0.989302 (19.706780) All:0.990735 (20.331534)
[out#0/null @ 00000228b1f12a80] video:949KiB audio:17268KiB subtitle:0KiB other streams:0KiB global headers:0KiB muxing overhead: unknown
frame= 2208 fps=172 q=-0.0 Lsize=N/A time=00:01:32.09 bitrate=N/A speed=7.17x    
